<?xml version="1.0" encoding="UTF-8" standalone="no"?>
<!-- Generator: Adobe Illustrator 19.0.0, SVG Export Plug-In . SVG Version: 6.00 Build 0)  -->

<svg
   version="1.1"
   id="Capa_1"
   x="0px"
   y="0px"
   viewBox="0 0 512 512"
   style="enable-background:new 0 0 512 512;"
   xml:space="preserve"
   sodipodi:docname="dbLib-edit.svg"
   inkscape:version="1.2.2 (1:1.2.2+202212051552+b0a8486541)"
   xmlns:inkscape="http://www.inkscape.org/namespaces/inkscape"
   xmlns:sodipodi="http://sodipodi.sourceforge.net/DTD/sodipodi-0.dtd"
   xmlns="http://www.w3.org/2000/svg"
   xmlns:svg="http://www.w3.org/2000/svg"><defs
   id="defs57" /><sodipodi:namedview
   id="namedview55"
   pagecolor="#505050"
   bordercolor="#eeeeee"
   borderopacity="1"
   inkscape:showpageshadow="0"
   inkscape:pageopacity="0"
   inkscape:pagecheckerboard="0"
   inkscape:deskcolor="#505050"
   showgrid="false"
   inkscape:zoom="1.4946302"
   inkscape:cx="219.45228"
   inkscape:cy="238.18601"
   inkscape:window-width="1920"
   inkscape:window-height="1027"
   inkscape:window-x="0"
   inkscape:window-y="22"
   inkscape:window-maximized="1"
   inkscape:current-layer="layer4"
   showguides="true"><sodipodi:guide
     position="-52.466431,97"
     orientation="0,1"
     id="guide691"
     inkscape:locked="false"
     inkscape:label=""
     inkscape:color="rgb(0,134,229)" /><sodipodi:guide
     position="380,-7.8398115"
     orientation="-1,0"
     id="guide693"
     inkscape:locked="false"
     inkscape:label=""
     inkscape:color="rgb(0,134,229)" /></sodipodi:namedview>

<g
   id="g24">
</g>
<g
   id="g26">
</g>
<g
   id="g28">
</g>
<g
   id="g30">
</g>
<g
   id="g32">
</g>
<g
   id="g34">
</g>
<g
   id="g36">
</g>
<g
   id="g38">
</g>
<g
   id="g40">
</g>
<g
   id="g42">
</g>
<g
   id="g44">
</g>
<g
   id="g46">
</g>
<g
   id="g48">
</g>
<g
   id="g50">
</g>
<g
   id="g52">
</g>
<g
   inkscape:groupmode="layer"
   id="layer1"
   inkscape:label="dbLib"
   style="display:inline"><g
     id="g22"
     style="fill:#ffffff">
	<g
   id="g20"
   style="fill:#ffffff">
		<g
   id="g18"
   style="fill:#ffffff">
			<path
   d="m 266.667,298.667 h 170.667 c 5.888,0 10.667,-4.779 10.667,-10.667 0,-5.888 -4.779,-10.667 -10.667,-10.667 H 266.667 c -5.888,0 -10.667,4.779 -10.667,10.667 0,5.888 4.779,10.667 10.667,10.667 z"
   id="path2"
   style="fill:#ffffff" />
			<path
   d="M 512,202.667 V 160 c 0,-10.304 -3.072,-19.84 -8.149,-28.011 -0.128,-0.256 -0.149,-0.555 -0.299,-0.789 L 437.589,25.173 C 427.797,9.429 410.859,0 392.299,0 H 119.723 C 101.142,0 84.224,9.429 74.432,25.173 L 8.469,131.2 c -0.128,0.213 -0.128,0.448 -0.256,0.683 C 3.093,140.053 0,149.653 0,160 v 42.667 C 0,220.16 8.597,235.606 21.675,245.334 8.597,255.061 0,270.485 0,288 v 42.667 C 0,348.16 8.597,363.606 21.675,373.334 8.597,383.061 0,398.485 0,416 v 42.667 C 0,488.064 23.936,512 53.333,512 h 139.861 c 5.909,0 10.667,-4.779 10.667,-10.667 0,-5.888 -4.779,-10.667 -10.667,-10.667 H 53.333 c -17.643,0 -32,-14.357 -32,-32 V 416 c 0,-17.664 14.357,-32 32,-32 h 178.432 c 5.888,0 10.667,-4.779 10.667,-10.667 0,-5.888 -4.779,-10.667 -10.667,-10.667 H 53.333 c -17.643,0 -32,-14.357 -32,-32 V 288 c 0,-17.664 14.357,-32 32,-32 h 405.333 c 17.643,0 32,14.357 32,32 v 42.667 c 0,4.693 -1.152,9.408 -3.371,13.952 -2.581,5.291 -0.405,11.669 4.885,14.272 5.312,2.603 11.691,0.427 14.272,-4.885 3.691,-7.509 5.547,-15.339 5.547,-23.339 V 288 c 0,-17.493 -8.597,-32.939 -21.675,-42.667 C 503.403,235.584 512,220.16 512,202.667 Z M 92.544,36.437 c 5.867,-9.451 16.021,-15.104 27.157,-15.104 h 272.576 c 11.136,0 21.291,5.653 27.179,15.104 l 44.011,70.72 c -1.6,-0.171 -3.157,-0.491 -4.8,-0.491 H 53.333 c -1.643,0 -3.2,0.32 -4.8,0.469 z m 398.123,166.23 c 0,17.643 -14.357,32 -32,32 H 53.333 c -17.643,0 -32,-14.357 -32,-32 V 160 c 0,-17.664 14.357,-32 32,-32 h 405.333 c 17.643,0 32,14.336 32,32 v 42.667 z"
   id="path4"
   style="fill:#ffffff" />
			<path
   d="m 42.667,437.333 c 0,17.643 14.357,32 32,32 17.643,0 32,-14.357 32,-32 0,-17.643 -14.357,-32 -32,-32 -17.643,0 -32,14.336 -32,32 z m 42.666,0 C 85.333,443.221 80.554,448 74.666,448 68.778,448 64,443.221 64,437.333 c 0,-5.888 4.779,-10.667 10.667,-10.667 5.888,0 10.666,4.779 10.666,10.667 z"
   id="path6"
   style="fill:#ffffff" />
			
			<path
   d="M 437.333,149.333 H 266.667 c -5.888,0 -10.667,4.779 -10.667,10.667 0,5.888 4.779,10.667 10.667,10.667 h 170.667 c 5.888,0 10.667,-4.779 10.667,-10.667 0,-5.888 -4.78,-10.667 -10.668,-10.667 z"
   id="path10"
   style="fill:#ffffff" />
			<path
   d="M 437.333,192 H 266.667 c -5.888,0 -10.667,4.779 -10.667,10.667 0,5.888 4.779,10.667 10.667,10.667 h 170.667 c 5.888,0 10.667,-4.779 10.667,-10.667 0,-5.888 -4.78,-10.667 -10.668,-10.667 z"
   id="path12"
   style="fill:#ffffff" />
			<path
   d="m 74.667,149.333 c -17.643,0 -32,14.336 -32,32 0,17.664 14.357,32 32,32 17.643,0 32,-14.357 32,-32 0,-17.642 -14.358,-32 -32,-32 z m 0,42.667 C 68.779,192 64,187.221 64,181.333 c 0,-5.888 4.779,-10.667 10.667,-10.667 5.888,0 10.667,4.779 10.667,10.667 0,5.888 -4.779,10.667 -10.667,10.667 z"
   id="path14"
   style="fill:#ffffff" />
			<path
   d="m 42.667,309.333 c 0,17.643 14.357,32 32,32 17.643,0 32,-14.357 32,-32 0,-17.643 -14.357,-32 -32,-32 -17.643,0 -32,14.336 -32,32 z m 42.666,0 C 85.333,315.221 80.554,320 74.666,320 68.778,320 64,315.221 64,309.333 c 0,-5.888 4.779,-10.667 10.667,-10.667 5.888,0 10.666,4.779 10.666,10.667 z"
   id="path16"
   style="fill:#ffffff" />
		</g>
	</g>
</g></g><g
   inkscape:groupmode="layer"
   id="layer2"
   inkscape:label="add"
   style="display:none"><path
     d="M 446.9125,394.16667 H 400.83333 V 348.0875 C 400.83333,336.76667 391.32499,327.5 380,327.5 c -11.325,0 -20.83334,9.26667 -20.83334,20.5875 v 46.07917 H 313.0875 c -11.32084,0 -20.5875,9.50834 -20.5875,20.83333 0,11.325 9.26666,20.83334 20.5875,20.83334 h 46.07916 v 46.07916 c 0,11.32084 9.50834,20.5875 20.83334,20.5875 11.32499,0 20.83333,-9.26666 20.83333,-20.5875 v -46.07916 h 46.07917 c 11.32083,0 20.5875,-9.50834 20.5875,-20.83334 0,-11.32499 -9.26667,-20.83333 -20.5875,-20.83333 z"
     id="path500"
     style="fill:#ffffff;stroke-width:4.16668" /></g><g
   inkscape:groupmode="layer"
   id="layer3"
   inkscape:label="minus"
   style="display:none"><path
     d="M 446.9125,394.16667 H 400.83333 359.16667 313.0875 C 301.76667,394.16667 292.5,403.675 292.5,415 c 0,11.32499 9.26667,20.83334 20.5875,20.83334 h 46.07917 41.66666 46.07917 c 11.32083,0 20.5875,-9.50834 20.5875,-20.83334 0,-11.325 -9.26667,-20.83333 -20.5875,-20.83333 z"
     id="path848"
     style="fill:#ffffff;stroke-width:4.16667" /></g><g
   inkscape:groupmode="layer"
   id="layer4"
   inkscape:label="edit"
   style="display:inline"><g
     id="g1229"
     transform="matrix(0.35533533,0,0,0.35533533,292.50012,327.50414)"
     style="fill:#ffffff"><path
       d="M 304.14062,82.472656 33.164062,353.46875 c -1.363281,1.36719 -2.347656,3.09375 -2.816406,4.94922 L 0.3125,478.97266 c -0.898438,3.6289 0.167969,7.48828 2.816406,10.13671 2.003906,2.00391 4.734375,3.11329 7.527344,3.11329 0.855469,0 1.730469,-0.10547 2.582031,-0.32032 L 133.79297,461.86328 c 1.8789,-0.46875 3.58594,-1.44922 4.94922,-2.8125 l 271,-270.97656 z m 0,0"
       id="path1100"
       style="fill:#ffffff" /><path
       d="M 476.875,45.523438 446.71094,15.359375 c -20.16016,-20.160156 -55.29688,-20.140625 -75.4336,0 L 334.32812,52.308594 439.92578,157.90625 476.875,120.95703 c 10.07031,-10.0664 15.61719,-23.464842 15.61719,-37.714842 0,-14.25 -5.54688,-27.648438 -15.61719,-37.71875 z m 0,0"
       id="path1102"
       style="fill:#ffffff" /></g></g></svg>
